<?xml version="1.0" encoding="utf-8"?>
<svg xmlns="http://www.w3.org/2000/svg" xmlns:xlink="http://www.w3.org/1999/xlink">
  <symbol fill="currentColor" class="bi bi-piggy-bank-regular" viewBox="0 0 576 512" id="piggy-bank-regular" xmlns="http://www.w3.org/2000/svg">
<path d="M560 224h-29.5c-8.8-20-21.6-37.7-37.4-52.5L512 96h-32c-29.4 0-55.4 13.5-73 34.3-7.6-1.1-15.1-2.3-23-2.3H256c-77.4 0-141.9 55-156.8 128H56c-14.8 0-26.5-13.5-23.5-28.8C34.7 215.8 45.4 208 57 208h1c3.3 0 6-2.7 6-6v-20c0-3.3-2.7-6-6-6-28.5 0-53.9 20.4-57.5 48.6C-3.9 258.8 22.7 288 56 288h40c0 52.2 25.4 98.1 64 127.3V496c0 8.8 7.2 16 16 16h64c8.8 0 16-7.2 16-16v-48h128v48c0 8.8 7.2 16 16 16h64c8.8 0 16-7.2 16-16v-80.7c11.8-8.9 22.3-19.4 31.3-31.3H560c8.8 0 16-7.2 16-16V240c0-8.8-7.2-16-16-16zm-128 64c-8.8 0-16-7.2-16-16s7.2-16 16-16 16 7.2 16 16-7.2 16-16 16zM256 96h128c5.4 0 10.7.4 15.9.8 0-.3.1-.5.1-.8 0-53-43-96-96-96s-96 43-96 96c0 2.1.5 4.1.6 6.2 15.2-3.9 31-6.2 47.4-6.2z"/>
  </symbol>
  <symbol fill="currentColor" class="bi bi-house-door-fill" viewBox="0 0 16 16" id="house-door-fill" xmlns="http://www.w3.org/2000/svg">
    <path d="M6.5 14.5v-3.505c0-.245.25-.495.5-.495h2c.25 0 .5.25.5.5v3.5a.5.5 0 00.5.5h4a.5.5 0 00.5-.5v-7a.5.5 0 00-.146-.354L13 5.793V2.5a.5.5 0 00-.5-.5h-1a.5.5 0 00-.5.5v1.293L8.354 1.146a.5.5 0 00-.708 0l-6 6A.5.5 0 001.5 7.5v7a.5.5 0 00.5.5h4a.5.5 0 00.5-.5z"/>
  </symbol>
  <symbol fill="currentColor" class="bi bi-archive-fill" viewBox="0 0 16 16" id="archive-fill" xmlns="http://www.w3.org/2000/svg">
    <path d="M12.643 15C13.979 15 15 13.845 15 12.5V5H1v7.5C1 13.845 2.021 15 3.357 15h9.286zM5.5 7h5a.5.5 0 010 1h-5a.5.5 0 010-1zM.8 1a.8.8 0 00-.8.8V3a.8.8 0 00.8.8h14.4A.8.8 0 0016 3V1.8a.8.8 0 00-.8-.8H.8z"/>
  </symbol>
  <symbol fill="currentColor" class="bi bi-journal-text" viewBox="0 0 16 16" id="journal-text" xmlns="http://www.w3.org/2000/svg">
    <path d="M5 10.5a.5.5 0 01.5-.5h2a.5.5 0 010 1h-2a.5.5 0 01-.5-.5zm0-2a.5.5 0 01.5-.5h5a.5.5 0 010 1h-5a.5.5 0 01-.5-.5zm0-2a.5.5 0 01.5-.5h5a.5.5 0 010 1h-5a.5.5 0 01-.5-.5zm0-2a.5.5 0 01.5-.5h5a.5.5 0 010 1h-5a.5.5 0 01-.5-.5z"/>
    <path d="M3 0h10a2 2 0 012 2v12a2 2 0 01-2 2H3a2 2 0 01-2-2v-1h1v1a1 1 0 001 1h10a1 1 0 001-1V2a1 1 0 00-1-1H3a1 1 0 00-1 1v1H1V2a2 2 0 012-2z"/>
    <path d="M1 5v-.5a.5.5 0 011 0V5h.5a.5.5 0 010 1h-2a.5.5 0 010-1H1zm0 3v-.5a.5.5 0 011 0V8h.5a.5.5 0 010 1h-2a.5.5 0 010-1H1zm0 3v-.5a.5.5 0 011 0v.5h.5a.5.5 0 010 1h-2a.5.5 0 010-1H1z"/>
  </symbol>
  <symbol fill="currentColor" class="bi bi-graph-up" viewBox="0 0 16 16" id="graph-up" xmlns="http://www.w3.org/2000/svg">
    <path fill-rule="evenodd" d="M0 0h1v15h15v1H0V0zm10 3.5a.5.5 0 01.5-.5h4a.5.5 0 01.5.5v4a.5.5 0 01-1 0V4.9l-3.613 4.417a.5.5 0 01-.74.037L7.06 6.767l-3.656 5.027a.5.5 0 01-.808-.588l4-5.5a.5.5 0 01.758-.06l2.609 2.61L13.445 4H10.5a.5.5 0 01-.5-.5z"/>
  </symbol>
  <symbol fill="currentColor" class="bi bi-paperclip" viewBox="0 0 16 16" id="paperclip" xmlns="http://www.w3.org/2000/svg">
    <path d="M4.5 3a2.5 2.5 0 015 0v9a1.5 1.5 0 01-3 0V5a.5.5 0 011 0v7a.5.5 0 001 0V3a1.5 1.5 0 10-3 0v9a2.5 2.5 0 005 0V5a.5.5 0 011 0v7a3.5 3.5 0 11-7 0V3z"/>
  </symbol>
  <symbol fill="currentColor" class="bi bi-chevron-left" viewBox="0 0 16 16" id="chevron-left" xmlns="http://www.w3.org/2000/svg">
    <path fill-rule="evenodd" d="M11.354 1.646a.5.5 0 010 .708L5.707 8l5.647 5.646a.5.5 0 01-.708.708l-6-6a.5.5 0 010-.708l6-6a.5.5 0 01.708 0z"/>
  </symbol>
  <symbol fill="currentColor" class="bi bi-chevron-right" viewBox="0 0 16 16" id="chevron-right" xmlns="http://www.w3.org/2000/svg">
    <path fill-rule="evenodd" d="M4.646 1.646a.5.5 0 01.708 0l6 6a.5.5 0 010 .708l-6 6a.5.5 0 01-.708-.708L10.293 8 4.646 2.354a.5.5 0 010-.708z"/>
  </symbol>
  <symbol fill="currentColor" class="bi bi-arrow-right-short" viewBox="0 0 16 16" id="arrow-right-short" xmlns="http://www.w3.org/2000/svg">
    <path fill-rule="evenodd" d="M4 8a.5.5 0 01.5-.5h5.793L8.146 5.354a.5.5 0 11.708-.708l3 3a.5.5 0 010 .708l-3 3a.5.5 0 01-.708-.708L10.293 8.5H4.5A.5.5 0 014 8z"/>
  </symbol>
  <symbol fill="currentColor" class="bi bi-arrow-left-short" viewBox="0 0 16 16" id="arrow-left-short" xmlns="http://www.w3.org/2000/svg">
    <path fill-rule="evenodd" d="M12 8a.5.5 0 01-.5.5H5.707l2.147 2.146a.5.5 0 01-.708.708l-3-3a.5.5 0 010-.708l3-3a.5.5 0 11.708.708L5.707 7.5H11.5a.5.5 0 01.5.5z"/>
  </symbol>
  <symbol fill="currentColor" class="bi bi-pencil-square" viewBox="0 0 16 16" id="pencil-square" xmlns="http://www.w3.org/2000/svg">
    <path d="M15.502 1.94a.5.5 0 010 .706L14.459 3.69l-2-2L13.502.646a.5.5 0 01.707 0l1.293 1.293zm-1.75 2.456l-2-2L4.939 9.21a.5.5 0 00-.121.196l-.805 2.414a.25.25 0 00.316.316l2.414-.805a.5.5 0 00.196-.12l6.813-6.814z"/>
    <path fill-rule="evenodd" d="M1 13.5A1.5 1.5 0 002.5 15h11a1.5 1.5 0 001.5-1.5v-6a.5.5 0 00-1 0v6a.5.5 0 01-.5.5h-11a.5.5 0 01-.5-.5v-11a.5.5 0 01.5-.5H9a.5.5 0 000-1H2.5A1.5 1.5 0 001 2.5v11z"/>
  </symbol>
  <symbol fill="currentColor" class="bi bi-search" viewBox="0 0 16 16" id="search" xmlns="http://www.w3.org/2000/svg">
    <path d="M11.742 10.344a6.5 6.5 0 10-1.397 1.398h-.001c.03.04.062.078.098.115l3.85 3.85a1 1 0 001.415-1.414l-3.85-3.85a1.007 1.007 0 00-.115-.1zM12 6.5a5.5 5.5 0 11-11 0 5.5 5.5 0 0111 0z"/>
  </symbol>
  <symbol fill="currentColor" class="bi bi-box-arrow-down" viewBox="0 0 16 16" id="box-arrow-down" xmlns="http://www.w3.org/2000/svg">
    <path fill-rule="evenodd" d="M3.5 10a.5.5 0 01-.5-.5v-8a.5.5 0 01.5-.5h9a.5.5 0 01.5.5v8a.5.5 0 01-.5.5h-2a.5.5 0 000 1h2A1.5 1.5 0 0014 9.5v-8A1.5 1.5 0 0012.5 0h-9A1.5 1.5 0 002 1.5v8A1.5 1.5 0 003.5 11h2a.5.5 0 000-1h-2z"/>
    <path fill-rule="evenodd" d="M7.646 15.854a.5.5 0 00.708 0l3-3a.5.5 0 00-.708-.708L8.5 14.293V5.5a.5.5 0 00-1 0v8.793l-2.146-2.147a.5.5 0 00-.708.708l3 3z"/>
  </symbol>
  <symbol fill="currentColor" class="bi bi-person-circle" viewBox="0 0 16 16" id="person-circle" xmlns="http://www.w3.org/2000/svg">
    <path d="M13.468 12.37C12.758 11.226 11.195 10 8 10s-4.757 1.225-5.468 2.37A6.987 6.987 0 008 15a6.987 6.987 0 005.468-2.63z"/>
    <path fill-rule="evenodd" d="M8 9a3 3 0 100-6 3 3 0 000 6z"/><path fill-rule="evenodd" d="M8 1a7 7 0 100 14A7 7 0 008 1zM0 8a8 8 0 1116 0A8 8 0 010 8z"/>
  </symbol>
  <symbol fill="currentColor" class="bi bi-list-ol" viewBox="0 0 16 16" id="list-ol" xmlns="http://www.w3.org/2000/svg">
    <path fill-rule="evenodd" d="M5 11.5a.5.5 0 01.5-.5h9a.5.5 0 010 1h-9a.5.5 0 01-.5-.5zm0-4a.5.5 0 01.5-.5h9a.5.5 0 010 1h-9a.5.5 0 01-.5-.5zm0-4a.5.5 0 01.5-.5h9a.5.5 0 010 1h-9a.5.5 0 01-.5-.5z"/>
    <path d="M1.713 11.865v-.474H2c.217 0 .363-.137.363-.317 0-.185-.158-.31-.361-.31-.223 0-.367.152-.373.31h-.59c.016-.467.373-.787.986-.787.588-.002.954.291.957.703a.595.595 0 01-.492.594v.033a.615.615 0 01.569.631c.003.533-.502.8-1.051.8-.656 0-1-.37-1.008-.794h.582c.008.178.186.306.422.309.254 0 .424-.145.422-.35-.002-.195-.155-.348-.414-.348h-.3zm-.004-4.699h-.604v-.035c0-.408.295-.844.958-.844.583 0 .96.326.96.756 0 .389-.257.617-.476.848l-.537.572v.03h1.054V9H1.143v-.395l.957-.99c.138-.142.293-.304.293-.508 0-.18-.147-.32-.342-.32a.33.33 0 00-.342.338v.041zM2.564 5h-.635V2.924h-.031l-.598.42v-.567l.629-.443h.635V5z"/>
  </symbol>
  <symbol fill="currentColor" class="bi bi-door-closed-fill" viewBox="0 0 16 16" id="door-closed-fill" xmlns="http://www.w3.org/2000/svg">
    <path d="M12 1a1 1 0 011 1v13h1.5a.5.5 0 010 1h-13a.5.5 0 010-1H3V2a1 1 0 011-1h8zm-2 9a1 1 0 100-2 1 1 0 000 2z"/>
  </symbol>
  <symbol fill="currentColor" class="bi bi-patch-question" viewBox="0 0 16 16" id="patch-question" xmlns="http://www.w3.org/2000/svg">
    <path d="M8.05 9.6c.336 0 .504-.24.554-.627.04-.534.198-.815.847-1.26.673-.475 1.049-1.09 1.049-1.986 0-1.325-.92-2.227-2.262-2.227-1.02 0-1.792.492-2.1 1.29A1.71 1.71 0 006 5.48c0 .393.203.64.545.64.272 0 .455-.147.564-.51.158-.592.525-.915 1.074-.915.61 0 1.03.446 1.03 1.084 0 .563-.208.885-.822 1.325-.619.433-.926.914-.926 1.64v.111c0 .428.208.745.585.745z"/>
    <path d="M10.273 2.513l-.921-.944.715-.698.622.637.89-.011a2.89 2.89 0 012.924 2.924l-.01.89.636.622a2.89 2.89 0 010 4.134l-.637.622.011.89a2.89 2.89 0 01-2.924 2.924l-.89-.01-.622.636a2.89 2.89 0 01-4.134 0l-.622-.637-.89.011a2.89 2.89 0 01-2.924-2.924l.01-.89-.636-.622a2.89 2.89 0 010-4.134l.637-.622-.011-.89a2.89 2.89 0 012.924-2.924l.89.01.622-.636a2.89 2.89 0 014.134 0l-.715.698a1.89 1.89 0 00-2.704 0l-.92.944-1.32-.016a1.89 1.89 0 00-1.911 1.912l.016 1.318-.944.921a1.89 1.89 0 000 2.704l.944.92-.016 1.32a1.89 1.89 0 001.912 1.911l1.318-.016.921.944a1.89 1.89 0 002.704 0l.92-.944 1.32.016a1.89 1.89 0 001.911-1.912l-.016-1.318.944-.921a1.89 1.89 0 000-2.704l-.944-.92.016-1.32a1.89 1.89 0 00-1.912-1.911l-1.318.016z"/>
    <path d="M7.002 11a1 1 0 112 0 1 1 0 01-2 0z"/>
  </symbol>
  <symbol fill="currentColor" class="bi bi-trash" viewBox="0 0 16 16" id="trash" xmlns="http://www.w3.org/2000/svg">
    <path d="M5.5 5.5A.5.5 0 016 6v6a.5.5 0 01-1 0V6a.5.5 0 01.5-.5zm2.5 0a.5.5 0 01.5.5v6a.5.5 0 01-1 0V6a.5.5 0 01.5-.5zm3 .5a.5.5 0 00-1 0v6a.5.5 0 001 0V6z"/>
    <path fill-rule="evenodd" d="M14.5 3a1 1 0 01-1 1H13v9a2 2 0 01-2 2H5a2 2 0 01-2-2V4h-.5a1 1 0 01-1-1V2a1 1 0 011-1H6a1 1 0 011-1h2a1 1 0 011 1h3.5a1 1 0 011 1v1zM4.118 4L4 4.059V13a1 1 0 001 1h6a1 1 0 001-1V4.059L11.882 4H4.118zM2.5 3V2h11v1h-11z"/>
  </symbol>
  <symbol fill="currentColor" class="bi bi-graph-down" viewBox="0 0 16 16" id="graph-down" xmlns="http://www.w3.org/2000/svg">
    <path fill-rule="evenodd" d="M0 0h1v15h15v1H0V0zm10 11.5a.5.5 0 0 0 .5.5h4a.5.5 0 0 0 .5-.5v-4a.5.5 0 0 0-1 0v2.6l-3.613-4.417a.5.5 0 0 0-.74-.037L7.06 8.233 3.404 3.206a.5.5 0 0 0-.808.588l4 5.5a.5.5 0 0 0 .758.06l2.609-2.61L13.445 11H10.5a.5.5 0 0 0-.5.5z"/>
  </symbol>
</svg>
